solid cable clips
facet normal -2.02775467618036e-013 -1.0 -1.05748743095546e-016
  outer loop
    vertex 9.29980000000024 17.0989999999985 10.0
    vertex -4.70019999999977 17.0990000000013 1.39898537199201e-014
    vertex 9.29980000000025 17.0989999999985 1.11698872373722e-014
  endloop
endfacet
facet normal -2.02775467618036e-013 -1.0 -1.05748743095546e-016
  outer loop
    vertex -4.70019999999977 17.0990000000013 1.39898537199201e-014
    vertex 9.29980000000024 17.0989999999985 10.0
    vertex -4.70019999999977 17.0990000000013 10.0
  endloop
endfacet
facet normal 0.707106781186405 -0.70710678118669 -2.17628307755638e-017
  outer loop
    vertex -3.70020000000054 13.3990000000011 1.85995807321194e-014
    vertex -4.70020000000074 12.3990000000013 10.0
    vertex -4.70020000000074 12.3990000000013 1.43696310082975e-014
  endloop
endfacet
facet normal 0.707106781186405 -0.70710678118669 -2.17628307755638e-017
  outer loop
    vertex -4.70020000000074 12.3990000000013 10.0
    vertex -3.70020000000054 13.3990000000011 1.85995807321194e-014
    vertex -3.70020000000054 13.3990000000011 10.0
  endloop
endfacet
facet normal -2.02162796328672e-013 -1.0 3.17246229286638e-016
  outer loop
    vertex -6.20020000000071 12.3990000000016 10.0
    vertex -4.70020000000074 12.3990000000013 1.43696310082975e-014
    vertex -4.70020000000074 12.3990000000013 10.0
  endloop
endfacet
facet normal -2.02162796328672e-013 -1.0 3.17246229286638e-016
  outer loop
    vertex -4.70020000000074 12.3990000000013 1.43696310082975e-014
    vertex -6.20020000000071 12.3990000000016 10.0
    vertex -6.20020000000074 12.3990000000016 1.29596477670236e-014
  endloop
endfacet
facet normal 1.0 -2.24957525395935e-013 1.12798659301915e-015
  outer loop
    vertex -3.70020000000043 13.8990000000011 10.0
    vertex -3.70020000000054 13.3990000000011 1.85995807321194e-014
    vertex -3.70020000000041 13.8990000000011 1.85995807321194e-014
  endloop
endfacet
facet normal 1.0 -2.24957525395935e-013 1.12798659301915e-015
  outer loop
    vertex -3.70020000000054 13.3990000000011 1.85995807321194e-014
    vertex -3.70020000000043 13.8990000000011 10.0
    vertex -3.70020000000054 13.3990000000011 10.0
  endloop
endfacet
facet normal 3.56928820508914e-016 -9.36125612871091e-016 1.0
  outer loop
    vertex 10.7998000000002 16.6989999999982 10.0
    vertex 9.29979999999929 12.3989999999985 10.0
    vertex 10.7997999999993 12.3989999999982 10.0
  endloop
endfacet
facet normal 3.56928820508914e-016 -9.36125612871091e-016 1.0
  outer loop
    vertex 9.29979999999929 12.3989999999985 10.0
    vertex 10.7998000000002 16.6989999999982 10.0
    vertex 8.2997999999995 13.3989999999987 10.0
  endloop
endfacet
facet normal 3.56928820508914e-016 -9.36125612871091e-016 1.0
  outer loop
    vertex 8.2997999999995 13.3989999999987 10.0
    vertex 10.7998000000002 16.6989999999982 10.0
    vertex 9.29979999999979 14.8989999999985 10.0
  endloop
endfacet
facet normal 3.56928820508914e-016 -9.36125612871091e-016 1.0
  outer loop
    vertex 8.2997999999995 13.3989999999987 10.0
    vertex 9.29979999999979 14.8989999999985 10.0
    vertex 8.29979999999958 13.8989999999987 10.0
  endloop
endfacet
facet normal 3.56928820508914e-016 -9.36125612871091e-016 1.0
  outer loop
    vertex 9.29979999999979 14.8989999999985 10.0
    vertex 10.7998000000002 16.6989999999982 10.0
    vertex 9.29980000000024 17.0989999999985 10.0
  endloop
endfacet
facet normal 3.56928820508914e-016 -9.36125612871091e-016 1.0
  outer loop
    vertex 9.29980000000024 17.0989999999985 10.0
    vertex 10.7998000000002 16.6989999999982 10.0
    vertex 11.7998000000002 16.698999999998 10.0
  endloop
endfacet
facet normal 3.56928820508914e-016 -9.36125612871091e-016 1.0
  outer loop
    vertex 9.29980000000024 17.0989999999985 10.0
    vertex 11.7998000000002 16.698999999998 10.0
    vertex 11.7998000000003 17.198999999998 10.0
  endloop
endfacet
facet normal 3.56928820508914e-016 -9.36125612871091e-016 1.0
  outer loop
    vertex 9.29980000000024 17.0989999999985 10.0
    vertex 11.7998000000003 17.198999999998 10.0
    vertex -4.70019999999977 17.0990000000013 10.0
  endloop
endfacet
facet normal 3.56928820508914e-016 -9.36125612871091e-016 1.0
  outer loop
    vertex -3.70020000000054 13.3990000000011 10.0
    vertex -6.20020000000071 12.3990000000016 10.0
    vertex -4.70020000000074 12.3990000000013 10.0
  endloop
endfacet
facet normal 3.56928820508914e-016 -9.36125612871091e-016 1.0
  outer loop
    vertex -6.20020000000071 12.3990000000016 10.0
    vertex -3.70020000000054 13.3990000000011 10.0
    vertex -6.20019999999984 16.6990000000016 10.0
  endloop
endfacet
facet normal 3.56928820508914e-016 -9.36125612871091e-016 1.0
  outer loop
    vertex -6.20019999999984 16.6990000000016 10.0
    vertex -3.70020000000054 13.3990000000011 10.0
    vertex -4.70020000000021 14.8990000000013 10.0
  endloop
endfacet
facet normal 3.56928820508914e-016 -9.36125612871091e-016 1.0
  outer loop
    vertex -4.70020000000021 14.8990000000013 10.0
    vertex -3.70020000000054 13.3990000000011 10.0
    vertex -3.70020000000043 13.8990000000011 10.0
  endloop
endfacet
facet normal 3.56928820508914e-016 -9.36125612871091e-016 1.0
  outer loop
    vertex -6.20019999999984 16.6990000000016 10.0
    vertex -4.70020000000021 14.8990000000013 10.0
    vertex -4.70019999999977 17.0990000000013 10.0
  endloop
endfacet
facet normal 3.56928820508914e-016 -9.36125612871091e-016 1.0
  outer loop
    vertex -6.20019999999984 16.6990000000016 10.0
    vertex -4.70019999999977 17.0990000000013 10.0
    vertex -7.20019999999984 16.6990000000018 10.0
  endloop
endfacet
facet normal 3.56928820508914e-016 -9.36125612871091e-016 1.0
  outer loop
    vertex -7.20019999999984 16.6990000000018 10.0
    vertex -4.70019999999977 17.0990000000013 10.0
    vertex -7.20019999999974 17.1990000000018 10.0
  endloop
endfacet
facet normal 3.56928820508914e-016 -9.36125612871091e-016 1.0
  outer loop
    vertex -7.20019999999974 17.1990000000018 10.0
    vertex -4.70019999999977 17.0990000000013 10.0
    vertex 11.7998000000003 17.198999999998 10.0
  endloop
endfacet
facet normal 3.56928820508914e-016 -9.36125612871091e-016 1.0
  outer loop
    vertex -7.20019999999974 17.1990000000018 10.0
    vertex 11.7998000000003 17.198999999998 10.0
    vertex 10.7998000000005 18.1989999999982 10.0
  endloop
endfacet
facet normal 3.56928820508914e-016 -9.36125612871091e-016 1.0
  outer loop
    vertex -7.20019999999974 17.1990000000018 10.0
    vertex 10.7998000000005 18.1989999999982 10.0
    vertex -6.20019999999953 18.1990000000016 10.0
  endloop
endfacet
facet normal -0.707106781186405 0.70710678118669 -2.88456429734292e-015
  outer loop
    vertex 8.29979999999963 13.8989999999987 3.12894299035849e-014
    vertex 9.29979999999979 14.8989999999985 10.0
    vertex 9.2997999999998 14.8989999999985 2.00095639733933e-014
  endloop
endfacet
facet normal -0.707106781186405 0.70710678118669 -2.88456429734292e-015
  outer loop
    vertex 9.29979999999979 14.8989999999985 10.0
    vertex 8.29979999999963 13.8989999999987 3.12894299035849e-014
    vertex 8.29979999999958 13.8989999999987 10.0
  endloop
endfacet
facet normal -2.02397793535551e-013 -1.0 4.22994972382185e-015
  outer loop
    vertex -6.20019999999984 16.6990000000017 25.0
    vertex 10.7998000000002 16.6989999999983 24.5
    vertex 10.7998000000002 16.6989999999983 25.0
  endloop
endfacet
facet normal -2.02397793535551e-013 -1.0 4.22994972382185e-015
  outer loop
    vertex 10.7998000000002 16.6989999999983 24.5
    vertex -6.20019999999984 16.6990000000017 25.0
    vertex -6.20019999999984 16.6990000000017 24.5
  endloop
endfacet
facet normal -1.0 2.0502101817048e-013 1.12798659301916e-015
  outer loop
    vertex -6.20020000000074 12.3990000000016 1.29596477670236e-014
    vertex -6.20019999999984 16.6990000000016 10.0
    vertex -6.20019999999984 16.6990000000016 1.26856192217417e-014
  endloop
endfacet
facet normal -1.0 2.0502101817048e-013 1.12798659301916e-015
  outer loop
    vertex -6.20019999999984 16.6990000000016 10.0
    vertex -6.20020000000074 12.3990000000016 1.29596477670236e-014
    vertex -6.20020000000071 12.3990000000016 10.0
  endloop
endfacet
facet normal 1.0 -2.02397793535551e-013 0.0
  outer loop
    vertex 10.7998000000005 18.1989999999983 25.0
    vertex 10.7998000000002 16.6989999999983 24.5
    vertex 10.7998000000005 18.1989999999983 23.0
  endloop
endfacet
facet normal 1.0 -2.02397793535551e-013 0.0
  outer loop
    vertex 10.7998000000002 16.6989999999983 24.5
    vertex 10.7998000000005 18.1989999999983 25.0
    vertex 10.7998000000002 16.6989999999983 25.0
  endloop
endfacet
facet normal 0.707106781186693 0.707106781186402 1.05648651219556e-015
  outer loop
    vertex -4.70020000000021 14.8990000000013 10.0
    vertex -3.70020000000041 13.8990000000011 1.85995807321194e-014
    vertex -4.70020000000021 14.8990000000013 1.43696310082975e-014
  endloop
endfacet
facet normal 0.707106781186693 0.707106781186402 1.05648651219556e-015
  outer loop
    vertex -3.70020000000041 13.8990000000011 1.85995807321194e-014
    vertex -4.70020000000021 14.8990000000013 10.0
    vertex -3.70020000000043 13.8990000000011 10.0
  endloop
endfacet
facet normal -1.0 2.02397793535551e-013 0.0
  outer loop
    vertex -6.20019999999984 16.6990000000017 24.5
    vertex -6.20019999999953 18.1990000000017 25.0
    vertex -6.20019999999953 18.1990000000017 23.0
  endloop
endfacet
facet normal -1.0 2.02397793535551e-013 0.0
  outer loop
    vertex -6.20019999999953 18.1990000000017 25.0
    vertex -6.20019999999984 16.6990000000017 24.5
    vertex -6.20019999999984 16.6990000000017 25.0
  endloop
endfacet
facet normal -1.43322226613597e-013 -0.707106781186548 -0.707106781186547
  outer loop
    vertex -6.20019999999984 16.6990000000017 24.5
    vertex 10.7998000000005 18.1989999999983 23.0
    vertex 10.7998000000002 16.6989999999983 24.5
  endloop
endfacet
facet normal -1.43322226613597e-013 -0.707106781186548 -0.707106781186547
  outer loop
    vertex 10.7998000000005 18.1989999999983 23.0
    vertex -6.20019999999984 16.6990000000017 24.5
    vertex -6.20019999999953 18.1990000000017 23.0
  endloop
endfacet
facet normal -1.0 2.02397793535551e-013 -1.12798659301916e-015
  outer loop
    vertex 9.2997999999998 14.8989999999985 2.00095639733933e-014
    vertex 9.29980000000024 17.0989999999985 10.0
    vertex 9.29980000000025 17.0989999999985 1.11698872373722e-014
  endloop
endfacet
facet normal -1.0 2.02397793535551e-013 -1.12798659301916e-015
  outer loop
    vertex 9.29980000000024 17.0989999999985 10.0
    vertex 9.2997999999998 14.8989999999985 2.00095639733933e-014
    vertex 9.29979999999979 14.8989999999985 10.0
  endloop
endfacet
facet normal -2.05217760018099e-013 -1.0 3.10633240730144e-034
  outer loop
    vertex -7.20019999999984 16.6990000000018 10.0
    vertex -6.20019999999984 16.6990000000016 1.26856192217417e-014
    vertex -6.20019999999984 16.6990000000016 10.0
  endloop
endfacet
facet normal -2.05217760018099e-013 -1.0 3.10633240730144e-034
  outer loop
    vertex -6.20019999999984 16.6990000000016 1.26856192217417e-014
    vertex -7.20019999999984 16.6990000000018 10.0
    vertex -7.20019999999984 16.6990000000018 1.26856192217417e-014
  endloop
endfacet
facet normal -0.707106781186699 -0.707106781186396 -2.98744313373667e-016
  outer loop
    vertex 9.29979999999929 12.3989999999985 10.0
    vertex 8.29979999999953 13.3989999999987 3.69293628686807e-014
    vertex 9.29979999999929 12.3989999999985 1.71895974908454e-014
  endloop
endfacet
facet normal -0.707106781186699 -0.707106781186396 -2.98744313373667e-016
  outer loop
    vertex 8.29979999999953 13.3989999999987 3.69293628686807e-014
    vertex 9.29979999999929 12.3989999999985 10.0
    vertex 8.2997999999995 13.3989999999987 10.0
  endloop
endfacet
facet normal -2.03040580013191e-013 -1.0 6.37203964806496e-015
  outer loop
    vertex -6.20019999999953 18.1990000000017 23.0
    vertex 10.7998000000005 18.1989999999982 10.0
    vertex 10.7998000000005 18.1989999999983 23.0
  endloop
endfacet
facet normal -2.03040580013191e-013 -1.0 6.37203964806496e-015
  outer loop
    vertex 10.7998000000005 18.1989999999982 10.0
    vertex -6.20019999999953 18.1990000000017 23.0
    vertex -6.20019999999953 18.1990000000016 10.0
  endloop
endfacet
facet normal -1.0 1.79838061675168e-013 -3.38395977905746e-015
  outer loop
    vertex 8.29979999999953 13.3989999999987 3.69293628686807e-014
    vertex 8.29979999999958 13.8989999999987 10.0
    vertex 8.29979999999963 13.8989999999987 3.12894299035849e-014
  endloop
endfacet
facet normal -1.0 1.79838061675168e-013 -3.38395977905746e-015
  outer loop
    vertex 8.29979999999958 13.8989999999987 10.0
    vertex 8.29979999999953 13.3989999999987 3.69293628686807e-014
    vertex 8.2997999999995 13.3989999999987 10.0
  endloop
endfacet
facet normal -6.31335779698934e-018 -1.18773298805444e-015 -1.0
  outer loop
    vertex -6.20019999999984 16.6990000000016 1.26856192217417e-014
    vertex -4.70020000000074 12.3990000000013 1.43696310082975e-014
    vertex -6.20020000000074 12.3990000000016 1.29596477670236e-014
  endloop
endfacet
facet normal -6.31335779698934e-018 -1.18773298805444e-015 -1.0
  outer loop
    vertex -4.70020000000074 12.3990000000013 1.43696310082975e-014
    vertex -6.20019999999984 16.6990000000016 1.26856192217417e-014
    vertex -3.70020000000054 13.3990000000011 1.85995807321194e-014
  endloop
endfacet
facet normal -6.31335779698934e-018 -1.18773298805444e-015 -1.0
  outer loop
    vertex -3.70020000000054 13.3990000000011 1.85995807321194e-014
    vertex -6.20019999999984 16.6990000000016 1.26856192217417e-014
    vertex -4.70020000000021 14.8990000000013 1.43696310082975e-014
  endloop
endfacet
facet normal -6.31335779698934e-018 -1.18773298805444e-015 -1.0
  outer loop
    vertex -3.70020000000054 13.3990000000011 1.85995807321194e-014
    vertex -4.70020000000021 14.8990000000013 1.43696310082975e-014
    vertex -3.70020000000041 13.8990000000011 1.85995807321194e-014
  endloop
endfacet
facet normal -6.31335779698934e-018 -1.18773298805444e-015 -1.0
  outer loop
    vertex -4.70020000000021 14.8990000000013 1.43696310082975e-014
    vertex -6.20019999999984 16.6990000000016 1.26856192217417e-014
    vertex -4.70019999999977 17.0990000000013 1.39898537199201e-014
  endloop
endfacet
facet normal -6.31335779698934e-018 -1.18773298805444e-015 -1.0
  outer loop
    vertex -4.70019999999977 17.0990000000013 1.39898537199201e-014
    vertex -6.20019999999984 16.6990000000016 1.26856192217417e-014
    vertex -7.20019999999984 16.6990000000018 1.26856192217417e-014
  endloop
endfacet
facet normal -6.31335779698934e-018 -1.18773298805444e-015 -1.0
  outer loop
    vertex -4.70019999999977 17.0990000000013 1.39898537199201e-014
    vertex -7.20019999999984 16.6990000000018 1.26856192217417e-014
    vertex -7.20019999999974 17.1990000000018 1.48005940836526e-014
  endloop
endfacet
facet normal -6.31335779698934e-018 -1.18773298805444e-015 -1.0
  outer loop
    vertex -4.70019999999977 17.0990000000013 1.39898537199201e-014
    vertex -7.20019999999974 17.1990000000018 1.48005940836526e-014
    vertex 11.7998000000002 17.198999999998 -4.2299497238212e-018
  endloop
endfacet
facet normal -6.31335779698934e-018 -1.18773298805444e-015 -1.0
  outer loop
    vertex 11.7998000000002 17.198999999998 -4.2299497238212e-018
    vertex -7.20019999999974 17.1990000000018 1.48005940836526e-014
    vertex 8.79980000000089 20.1989999999986 9.86565273919382e-015
  endloop
endfacet
facet normal -6.31335779698934e-018 -1.18773298805444e-015 -1.0
  outer loop
    vertex 8.79980000000089 20.1989999999986 9.86565273919382e-015
    vertex -7.20019999999974 17.1990000000018 1.48005940836526e-014
    vertex -4.20019999999917 20.1990000000012 2.39654851519333e-014
  endloop
endfacet
facet normal -6.31335779698934e-018 -1.18773298805444e-015 -1.0
  outer loop
    vertex 8.29979999999953 13.3989999999987 3.69293628686807e-014
    vertex 10.7997999999993 12.3989999999982 2.00095639733933e-014
    vertex 9.29979999999929 12.3989999999985 1.71895974908454e-014
  endloop
endfacet
facet normal -6.31335779698934e-018 -1.18773298805444e-015 -1.0
  outer loop
    vertex 10.7997999999993 12.3989999999982 2.00095639733933e-014
    vertex 8.29979999999953 13.3989999999987 3.69293628686807e-014
    vertex 10.7998000000002 16.6989999999982 1.97355354281115e-014
  endloop
endfacet
facet normal -6.31335779698934e-018 -1.18773298805444e-015 -1.0
  outer loop
    vertex 10.7998000000002 16.6989999999982 1.97355354281115e-014
    vertex 8.29979999999953 13.3989999999987 3.69293628686807e-014
    vertex 9.2997999999998 14.8989999999985 2.00095639733933e-014
  endloop
endfacet
facet normal -6.31335779698934e-018 -1.18773298805444e-015 -1.0
  outer loop
    vertex 9.2997999999998 14.8989999999985 2.00095639733933e-014
    vertex 8.29979999999953 13.3989999999987 3.69293628686807e-014
    vertex 8.29979999999963 13.8989999999987 3.12894299035849e-014
  endloop
endfacet
facet normal -6.31335779698934e-018 -1.18773298805444e-015 -1.0
  outer loop
    vertex 10.7998000000002 16.6989999999982 1.97355354281115e-014
    vertex 9.2997999999998 14.8989999999985 2.00095639733933e-014
    vertex 9.29980000000025 17.0989999999985 1.11698872373722e-014
  endloop
endfacet
facet normal -6.31335779698934e-018 -1.18773298805444e-015 -1.0
  outer loop
    vertex 10.7998000000002 16.6989999999982 1.97355354281115e-014
    vertex 9.29980000000025 17.0989999999985 1.11698872373722e-014
    vertex 11.7998000000001 16.698999999998 -4.2299497238212e-018
  endloop
endfacet
facet normal -6.31335779698934e-018 -1.18773298805444e-015 -1.0
  outer loop
    vertex 11.7998000000001 16.698999999998 -4.2299497238212e-018
    vertex 9.29980000000025 17.0989999999985 1.11698872373722e-014
    vertex 11.7998000000002 17.198999999998 -4.2299497238212e-018
  endloop
endfacet
facet normal -6.31335779698934e-018 -1.18773298805444e-015 -1.0
  outer loop
    vertex 11.7998000000002 17.198999999998 -4.2299497238212e-018
    vertex 9.29980000000025 17.0989999999985 1.11698872373722e-014
    vertex -4.70019999999977 17.0990000000013 1.39898537199201e-014
  endloop
endfacet
facet normal 1.0 -2.02397793535552e-013 -2.25597318603832e-015
  outer loop
    vertex 11.7998000000003 17.198999999998 10.0
    vertex 11.7998000000001 16.698999999998 -4.2299497238212e-018
    vertex 11.7998000000002 17.198999999998 -4.2299497238212e-018
  endloop
endfacet
facet normal 1.0 -2.02397793535552e-013 -2.25597318603832e-015
  outer loop
    vertex 11.7998000000001 16.698999999998 -4.2299497238212e-018
    vertex 11.7998000000003 17.198999999998 10.0
    vertex 11.7998000000002 16.698999999998 10.0
  endloop
endfacet
facet normal -0.707106781186407 0.707106781186688 -1.29281558377256e-015
  outer loop
    vertex -6.20019999999953 18.1990000000016 10.0
    vertex -4.20019999999907 20.1990000000013 24.0
    vertex -4.20019999999916 20.1990000000013 2.00000000000002
  endloop
endfacet
facet normal -0.707106781186407 0.707106781186688 -1.29281558377256e-015
  outer loop
    vertex -4.20019999999907 20.1990000000013 24.0
    vertex -6.20019999999953 18.1990000000016 10.0
    vertex -6.20019999999953 18.1990000000017 23.0
  endloop
endfacet
facet normal -0.707106781186407 0.707106781186688 -1.29281558377256e-015
  outer loop
    vertex -4.20019999999907 20.1990000000013 24.0
    vertex -6.20019999999953 18.1990000000017 23.0
    vertex -6.20019999999953 18.1990000000017 25.0
  endloop
endfacet
facet normal -0.707106781186407 0.707106781186688 -1.29281558377256e-015
  outer loop
    vertex -4.20019999999907 20.1990000000013 24.0
    vertex -6.20019999999953 18.1990000000017 25.0
    vertex -4.20019999999914 20.1990000000013 25.0
  endloop
endfacet
facet normal -0.707106781186407 0.707106781186688 -1.29281558377256e-015
  outer loop
    vertex -7.20019999999974 17.1990000000018 10.0
    vertex -4.20019999999917 20.1990000000012 2.39654851519333e-014
    vertex -7.20019999999974 17.1990000000018 1.48005940836526e-014
  endloop
endfacet
facet normal -0.707106781186407 0.707106781186688 -1.29281558377256e-015
  outer loop
    vertex -4.20019999999917 20.1990000000012 2.39654851519333e-014
    vertex -7.20019999999974 17.1990000000018 10.0
    vertex -4.20019999999916 20.1990000000013 2.00000000000002
  endloop
endfacet
facet normal -0.707106781186407 0.707106781186688 -1.29281558377256e-015
  outer loop
    vertex -4.20019999999916 20.1990000000013 2.00000000000002
    vertex -7.20019999999974 17.1990000000018 10.0
    vertex -6.20019999999953 18.1990000000016 10.0
  endloop
endfacet
facet normal -2.03352469688497e-013 -1.0 4.20791873567695e-016
  outer loop
    vertex 9.29979999999929 12.3989999999985 10.0
    vertex 10.7997999999993 12.3989999999982 2.00095639733933e-014
    vertex 10.7997999999993 12.3989999999982 10.0
  endloop
endfacet
facet normal -2.03352469688497e-013 -1.0 4.20791873567695e-016
  outer loop
    vertex 10.7997999999993 12.3989999999982 2.00095639733933e-014
    vertex 9.29979999999929 12.3989999999985 10.0
    vertex 9.29979999999929 12.3989999999985 1.71895974908454e-014
  endloop
endfacet
facet normal -1.98520339622048e-013 -1.0 7.40241201668823e-016
  outer loop
    vertex 10.7998000000002 16.6989999999982 10.0
    vertex 11.7998000000001 16.698999999998 -4.2299497238212e-018
    vertex 11.7998000000002 16.698999999998 10.0
  endloop
endfacet
facet normal -1.98520339622048e-013 -1.0 7.40241201668823e-016
  outer loop
    vertex 11.7998000000001 16.698999999998 -4.2299497238212e-018
    vertex 10.7998000000002 16.6989999999982 10.0
    vertex 10.7998000000002 16.6989999999982 1.97355354281115e-014
  endloop
endfacet
facet normal -1.0 2.02397793535551e-013 0.0
  outer loop
    vertex -7.20019999999984 16.6990000000018 10.0
    vertex -7.20019999999974 17.1990000000018 1.48005940836526e-014
    vertex -7.20019999999984 16.6990000000018 1.26856192217417e-014
  endloop
endfacet
facet normal -1.0 2.02397793535551e-013 0.0
  outer loop
    vertex -7.20019999999974 17.1990000000018 1.48005940836526e-014
    vertex -7.20019999999984 16.6990000000018 10.0
    vertex -7.20019999999974 17.1990000000018 10.0
  endloop
endfacet
facet normal 1.0 -2.02397793535551e-013 0.0
  outer loop
    vertex -4.70019999999977 17.0990000000013 10.0
    vertex -4.70020000000021 14.8990000000013 1.43696310082975e-014
    vertex -4.70019999999977 17.0990000000013 1.39898537199201e-014
  endloop
endfacet
facet normal 1.0 -2.02397793535551e-013 0.0
  outer loop
    vertex -4.70020000000021 14.8990000000013 1.43696310082975e-014
    vertex -4.70019999999977 17.0990000000013 10.0
    vertex -4.70020000000021 14.8990000000013 10.0
  endloop
endfacet
facet normal 1.0 -2.02397793535551e-013 1.12798659301916e-015
  outer loop
    vertex 10.7998000000002 16.6989999999982 10.0
    vertex 10.7997999999993 12.3989999999982 2.00095639733933e-014
    vertex 10.7998000000002 16.6989999999982 1.97355354281115e-014
  endloop
endfacet
facet normal 1.0 -2.02397793535551e-013 1.12798659301916e-015
  outer loop
    vertex 10.7997999999993 12.3989999999982 2.00095639733933e-014
    vertex 10.7998000000002 16.6989999999982 10.0
    vertex 10.7997999999993 12.3989999999982 10.0
  endloop
endfacet
facet normal -1.0 1.05399067251715e-013 6.20165514766268e-016
  outer loop
    vertex 7.79980000000091 20.1989999999988 24.0
    vertex 7.79980000000111 22.1989999999987 4.0
    vertex 7.79980000000089 20.198999999999 2.00000000000002
  endloop
endfacet
facet normal -1.0 1.05399067251715e-013 6.20165514766268e-016
  outer loop
    vertex 7.79980000000111 22.1989999999987 4.0
    vertex 7.79980000000091 20.1989999999988 24.0
    vertex 7.79980000000112 22.1989999999988 22.0
  endloop
endfacet
facet normal 1.38606992550202e-013 1.0 1.12297331927281e-015
  outer loop
    vertex 1.79980000000119 22.199 4.00000000000002
    vertex 2.79980000000108 22.1989999999998 22.0
    vertex 2.79980000000119 22.1989999999999 4.00000000000002
  endloop
endfacet
facet normal 1.38606992550202e-013 1.0 1.12297331927281e-015
  outer loop
    vertex 2.79980000000108 22.1989999999998 22.0
    vertex 1.79980000000119 22.199 4.00000000000002
    vertex 1.79980000000119 22.199 22.0
  endloop
endfacet
facet normal -1.0 1.24589879154276e-013 3.21286919515015e-015
  outer loop
    vertex 1.79980000000098 20.199 24.0
    vertex 1.79980000000119 22.199 4.00000000000002
    vertex 1.79980000000087 20.1990000000001 2.00000000000002
  endloop
endfacet
facet normal -1.0 1.24589879154276e-013 3.21286919515015e-015
  outer loop
    vertex 1.79980000000119 22.199 4.00000000000002
    vertex 1.79980000000098 20.199 24.0
    vertex 1.79980000000119 22.199 22.0
  endloop
endfacet
facet normal 1.19837295642359e-013 1.0 -1.04276093932421e-015
  outer loop
    vertex -4.20019999999887 22.1990000000013 4.00000000000002
    vertex -3.20019999999893 22.1990000000012 22.0
    vertex -3.20019999999887 22.1990000000012 4.00000000000002
  endloop
endfacet
facet normal 1.19837295642359e-013 1.0 -1.04276093932421e-015
  outer loop
    vertex -3.20019999999893 22.1990000000012 22.0
    vertex -4.20019999999887 22.1990000000013 4.00000000000002
    vertex -4.20019999999886 22.1990000000013 22.0
  endloop
endfacet
facet normal -1.0 1.30184692655651e-013 1.44624536060622e-015
  outer loop
    vertex -4.20019999999907 20.1990000000013 24.0
    vertex -4.20019999999887 22.1990000000013 4.00000000000002
    vertex -4.20019999999916 20.1990000000013 2.00000000000002
  endloop
endfacet
facet normal -1.0 1.30184692655651e-013 1.44624536060622e-015
  outer loop
    vertex -4.20019999999887 22.1990000000013 4.00000000000002
    vertex -4.20019999999907 20.1990000000013 24.0
    vertex -4.20019999999886 22.1990000000013 22.0
  endloop
endfacet
facet normal 8.37078432225047e-014 0.707106781186587 -0.707106781186508
  outer loop
    vertex 7.79980000000089 20.198999999999 2.00000000000002
    vertex 8.7998000000011 22.1989999999986 4.0
    vertex 8.79980000000089 20.1989999999988 2.00000000000002
  endloop
endfacet
facet normal 8.37078432225047e-014 0.707106781186587 -0.707106781186508
  outer loop
    vertex 8.7998000000011 22.1989999999986 4.0
    vertex 7.79980000000089 20.198999999999 2.00000000000002
    vertex 7.79980000000111 22.1989999999987 4.0
  endloop
endfacet
facet normal 1.55124014299028e-013 0.707106781186525 -0.70710678118657
  outer loop
    vertex -4.20019999999916 20.1990000000013 2.00000000000002
    vertex -3.20019999999887 22.1990000000012 4.00000000000002
    vertex -3.20019999999916 20.1990000000009 2.00000000000002
  endloop
endfacet
facet normal 1.55124014299028e-013 0.707106781186525 -0.70710678118657
  outer loop
    vertex -3.20019999999887 22.1990000000012 4.00000000000002
    vertex -4.20019999999916 20.1990000000013 2.00000000000002
    vertex -4.20019999999887 22.1990000000013 4.00000000000002
  endloop
endfacet
facet normal 1.99607711219242e-013 1.0 3.26067722294911e-016
  outer loop
    vertex 7.79980000000091 20.1989999999988 24.0
    vertex 1.79980000000098 20.199 25.0
    vertex 7.79980000000091 20.1989999999988 25.0
  endloop
endfacet
facet normal 1.99607711219242e-013 1.0 3.26067722294911e-016
  outer loop
    vertex 1.79980000000098 20.199 25.0
    vertex 7.79980000000091 20.1989999999988 24.0
    vertex 2.79980000000087 20.1989999999998 24.0
  endloop
endfacet
facet normal 1.99607711219242e-013 1.0 3.26067722294911e-016
  outer loop
    vertex 2.79980000000087 20.1989999999998 24.0
    vertex 7.79980000000091 20.1989999999988 24.0
    vertex 7.79980000000089 20.198999999999 2.00000000000002
  endloop
endfacet
facet normal 1.99607711219242e-013 1.0 3.26067722294911e-016
  outer loop
    vertex 2.79980000000087 20.1989999999998 24.0
    vertex 7.79980000000089 20.198999999999 2.00000000000002
    vertex 2.79980000000087 20.1989999999999 2.00000000000002
  endloop
endfacet
facet normal 1.99607711219242e-013 1.0 3.26067722294911e-016
  outer loop
    vertex 1.79980000000098 20.199 25.0
    vertex 2.79980000000087 20.1989999999998 24.0
    vertex 1.79980000000098 20.199 24.0
  endloop
endfacet
facet normal 1.99607711219242e-013 1.0 3.26067722294911e-016
  outer loop
    vertex 1.79980000000098 20.199 25.0
    vertex 1.79980000000098 20.199 24.0
    vertex 1.79980000000087 20.1990000000001 2.00000000000002
  endloop
endfacet
facet normal 1.99607711219242e-013 1.0 3.26067722294911e-016
  outer loop
    vertex 1.79980000000098 20.199 25.0
    vertex 1.79980000000087 20.1990000000001 2.00000000000002
    vertex -3.20019999999914 20.1990000000012 24.0
  endloop
endfacet
facet normal 1.99607711219242e-013 1.0 3.26067722294911e-016
  outer loop
    vertex 1.79980000000098 20.199 25.0
    vertex -3.20019999999914 20.1990000000012 24.0
    vertex -4.20019999999914 20.1990000000013 25.0
  endloop
endfacet
facet normal 1.99607711219242e-013 1.0 3.26067722294911e-016
  outer loop
    vertex -4.20019999999914 20.1990000000013 25.0
    vertex -3.20019999999914 20.1990000000012 24.0
    vertex -4.20019999999907 20.1990000000013 24.0
  endloop
endfacet
facet normal 1.99607711219242e-013 1.0 3.26067722294911e-016
  outer loop
    vertex 8.79980000000089 20.1989999999986 9.86565273919382e-015
    vertex 7.79980000000089 20.198999999999 2.00000000000002
    vertex 8.79980000000089 20.1989999999988 2.00000000000002
  endloop
endfacet
facet normal 1.99607711219242e-013 1.0 3.26067722294911e-016
  outer loop
    vertex 7.79980000000089 20.198999999999 2.00000000000002
    vertex 8.79980000000089 20.1989999999986 9.86565273919382e-015
    vertex -4.20019999999917 20.1990000000012 2.39654851519333e-014
  endloop
endfacet
facet normal 1.99607711219242e-013 1.0 3.26067722294911e-016
  outer loop
    vertex 7.79980000000089 20.198999999999 2.00000000000002
    vertex -4.20019999999917 20.1990000000012 2.39654851519333e-014
    vertex 2.79980000000087 20.1989999999999 2.00000000000002
  endloop
endfacet
facet normal 1.99607711219242e-013 1.0 3.26067722294911e-016
  outer loop
    vertex 2.79980000000087 20.1989999999999 2.00000000000002
    vertex -4.20019999999917 20.1990000000012 2.39654851519333e-014
    vertex 1.79980000000087 20.1990000000001 2.00000000000002
  endloop
endfacet
facet normal 1.99607711219242e-013 1.0 3.26067722294911e-016
  outer loop
    vertex 1.79980000000087 20.1990000000001 2.00000000000002
    vertex -4.20019999999917 20.1990000000012 2.39654851519333e-014
    vertex -3.20019999999916 20.1990000000009 2.00000000000002
  endloop
endfacet
facet normal 1.99607711219242e-013 1.0 3.26067722294911e-016
  outer loop
    vertex 1.79980000000087 20.1990000000001 2.00000000000002
    vertex -3.20019999999916 20.1990000000009 2.00000000000002
    vertex -3.20019999999914 20.1990000000012 24.0
  endloop
endfacet
facet normal 1.99607711219242e-013 1.0 3.26067722294911e-016
  outer loop
    vertex -3.20019999999916 20.1990000000009 2.00000000000002
    vertex -4.20019999999917 20.1990000000012 2.39654851519333e-014
    vertex -4.20019999999916 20.1990000000013 2.00000000000002
  endloop
endfacet
facet normal 1.18352725051927e-013 0.707106781186553 -0.707106781186542
  outer loop
    vertex 1.79980000000087 20.1990000000001 2.00000000000002
    vertex 2.79980000000119 22.1989999999999 4.00000000000002
    vertex 2.79980000000087 20.1989999999999 2.00000000000002
  endloop
endfacet
facet normal 1.18352725051927e-013 0.707106781186553 -0.707106781186542
  outer loop
    vertex 2.79980000000119 22.1989999999999 4.00000000000002
    vertex 1.79980000000087 20.1990000000001 2.00000000000002
    vertex 1.79980000000119 22.199 4.00000000000002
  endloop
endfacet
facet normal 0.707106781186705 0.70710678118639 -1.28767004911073e-015
  outer loop
    vertex 8.79980000000089 20.1989999999986 9.86565273919382e-015
    vertex 11.7998000000003 17.198999999998 10.0
    vertex 11.7998000000002 17.198999999998 -4.2299497238212e-018
  endloop
endfacet
facet normal 0.707106781186705 0.70710678118639 -1.28767004911073e-015
  outer loop
    vertex 11.7998000000003 17.198999999998 10.0
    vertex 8.79980000000089 20.1989999999986 9.86565273919382e-015
    vertex 8.79980000000089 20.1989999999988 2.00000000000002
  endloop
endfacet
facet normal 0.707106781186705 0.70710678118639 -1.28767004911073e-015
  outer loop
    vertex 11.7998000000003 17.198999999998 10.0
    vertex 8.79980000000089 20.1989999999988 2.00000000000002
    vertex 10.7998000000005 18.1989999999982 10.0
  endloop
endfacet
facet normal 0.707106781186705 0.70710678118639 -1.28767004911073e-015
  outer loop
    vertex 10.7998000000005 18.1989999999982 10.0
    vertex 8.79980000000089 20.1989999999988 2.00000000000002
    vertex 8.79980000000091 20.1989999999987 24.0
  endloop
endfacet
facet normal 0.707106781186705 0.70710678118639 -1.28767004911073e-015
  outer loop
    vertex 10.7998000000005 18.1989999999982 10.0
    vertex 8.79980000000091 20.1989999999987 24.0
    vertex 10.7998000000005 18.1989999999983 23.0
  endloop
endfacet
facet normal 0.707106781186705 0.70710678118639 -1.28767004911073e-015
  outer loop
    vertex 10.7998000000005 18.1989999999983 23.0
    vertex 8.79980000000091 20.1989999999987 24.0
    vertex 10.7998000000005 18.1989999999983 25.0
  endloop
endfacet
facet normal 0.707106781186705 0.70710678118639 -1.28767004911073e-015
  outer loop
    vertex 10.7998000000005 18.1989999999983 25.0
    vertex 8.79980000000091 20.1989999999987 24.0
    vertex 8.79980000000091 20.1989999999987 25.0
  endloop
endfacet
facet normal 4.22840633056981e-016 2.80343235362848e-015 1.0
  outer loop
    vertex 10.7998000000005 18.1989999999983 25.0
    vertex -6.20019999999984 16.6990000000017 25.0
    vertex 10.7998000000002 16.6989999999983 25.0
  endloop
endfacet
facet normal 4.22840633056981e-016 2.80343235362848e-015 1.0
  outer loop
    vertex -6.20019999999984 16.6990000000017 25.0
    vertex 10.7998000000005 18.1989999999983 25.0
    vertex -6.20019999999953 18.1990000000017 25.0
  endloop
endfacet
facet normal 4.22840633056981e-016 2.80343235362848e-015 1.0
  outer loop
    vertex -6.20019999999953 18.1990000000017 25.0
    vertex 10.7998000000005 18.1989999999983 25.0
    vertex 8.79980000000091 20.1989999999987 25.0
  endloop
endfacet
facet normal 4.22840633056981e-016 2.80343235362848e-015 1.0
  outer loop
    vertex -6.20019999999953 18.1990000000017 25.0
    vertex 8.79980000000091 20.1989999999987 25.0
    vertex 7.79980000000091 20.1989999999988 25.0
  endloop
endfacet
facet normal 4.22840633056981e-016 2.80343235362848e-015 1.0
  outer loop
    vertex -6.20019999999953 18.1990000000017 25.0
    vertex 7.79980000000091 20.1989999999988 25.0
    vertex 1.79980000000098 20.199 25.0
  endloop
endfacet
facet normal 4.22840633056981e-016 2.80343235362848e-015 1.0
  outer loop
    vertex -4.20019999999914 20.1990000000013 25.0
    vertex -6.20019999999953 18.1990000000017 25.0
    vertex 1.79980000000098 20.199 25.0
  endloop
endfacet
facet normal 1.09730535768904e-013 1.0 -4.97316755677789e-015
  outer loop
    vertex 8.7998000000011 22.1989999999986 4.0
    vertex 7.79980000000112 22.1989999999988 22.0
    vertex 8.79980000000112 22.1989999999987 22.0
  endloop
endfacet
facet normal 1.09730535768904e-013 1.0 -4.97316755677789e-015
  outer loop
    vertex 7.79980000000112 22.1989999999988 22.0
    vertex 8.7998000000011 22.1989999999986 4.0
    vertex 7.79980000000111 22.1989999999987 4.0
  endloop
endfacet
facet normal 1.0 -1.05760022961483e-013 -9.04176183869813e-016
  outer loop
    vertex 8.7998000000011 22.1989999999986 4.0
    vertex 8.79980000000091 20.1989999999987 24.0
    vertex 8.79980000000089 20.1989999999988 2.00000000000002
  endloop
endfacet
facet normal 1.0 -1.05760022961483e-013 -9.04176183869813e-016
  outer loop
    vertex 8.79980000000091 20.1989999999987 24.0
    vertex 8.7998000000011 22.1989999999986 4.0
    vertex 8.79980000000112 22.1989999999987 22.0
  endloop
endfacet
facet normal 1.0 -1.32560984411612e-013 2.46861541109841e-015
  outer loop
    vertex 2.79980000000119 22.1989999999999 4.00000000000002
    vertex 2.79980000000087 20.1989999999998 24.0
    vertex 2.79980000000087 20.1989999999999 2.00000000000002
  endloop
endfacet
facet normal 1.0 -1.32560984411612e-013 2.46861541109841e-015
  outer loop
    vertex 2.79980000000087 20.1989999999998 24.0
    vertex 2.79980000000119 22.1989999999999 4.00000000000002
    vertex 2.79980000000108 22.1989999999998 22.0
  endloop
endfacet
facet normal 1.0 -1.23807808449777e-013 8.46995081333225e-016
  outer loop
    vertex -3.20019999999887 22.1990000000012 4.00000000000002
    vertex -3.20019999999914 20.1990000000012 24.0
    vertex -3.20019999999916 20.1990000000009 2.00000000000002
  endloop
endfacet
facet normal 1.0 -1.23807808449777e-013 8.46995081333225e-016
  outer loop
    vertex -3.20019999999914 20.1990000000012 24.0
    vertex -3.20019999999887 22.1990000000012 4.00000000000002
    vertex -3.20019999999893 22.1990000000012 22.0
  endloop
endfacet
facet normal 1.03955244412646e-013 1.0 2.59888111031613e-014
  outer loop
    vertex 7.79980000000091 20.1989999999988 24.0
    vertex 8.79980000000091 20.1989999999987 25.0
    vertex 8.79980000000091 20.1989999999987 24.0
  endloop
endfacet
facet normal 1.03955244412646e-013 1.0 2.59888111031613e-014
  outer loop
    vertex 8.79980000000091 20.1989999999987 25.0
    vertex 7.79980000000091 20.1989999999988 24.0
    vertex 7.79980000000091 20.1989999999988 25.0
  endloop
endfacet
facet normal 7.748421175617e-014 0.707106781186552 0.707106781186543
  outer loop
    vertex 8.79980000000112 22.1989999999987 22.0
    vertex 7.79980000000091 20.1989999999988 24.0
    vertex 8.79980000000091 20.1989999999987 24.0
  endloop
endfacet
facet normal 7.748421175617e-014 0.707106781186552 0.707106781186543
  outer loop
    vertex 7.79980000000091 20.1989999999988 24.0
    vertex 8.79980000000112 22.1989999999987 22.0
    vertex 7.79980000000112 22.1989999999988 22.0
  endloop
endfacet
facet normal 1.22501812696198e-013 0.707106781186552 0.707106781186543
  outer loop
    vertex 2.79980000000108 22.1989999999998 22.0
    vertex 1.79980000000098 20.199 24.0
    vertex 2.79980000000087 20.1989999999998 24.0
  endloop
endfacet
facet normal 1.22501812696198e-013 0.707106781186552 0.707106781186543
  outer loop
    vertex 1.79980000000098 20.199 24.0
    vertex 2.79980000000108 22.1989999999998 22.0
    vertex 1.79980000000119 22.199 22.0
  endloop
endfacet
facet normal 1.2047913246962e-013 0.707106781186552 0.707106781186543
  outer loop
    vertex -3.20019999999893 22.1990000000012 22.0
    vertex -4.20019999999907 20.1990000000013 24.0
    vertex -3.20019999999914 20.1990000000012 24.0
  endloop
endfacet
facet normal 1.2047913246962e-013 0.707106781186552 0.707106781186543
  outer loop
    vertex -4.20019999999907 20.1990000000013 24.0
    vertex -3.20019999999893 22.1990000000012 22.0
    vertex -4.20019999999886 22.1990000000013 22.0
  endloop
endfacet
endsolid cable clips
